<svg xmlns="http://www.w3.org/2000/svg" width="420mm" height="297mm" viewBox="0 0 420 297">
  <title>FAN/8 · physical projection profile</title>
  <desc>Eight printable brise-fan leaves: six stable addressed slots plus HOLD FAST and LET FLY. One passive physical projection for current INTERPHASE, AXIAL, FOLD//BLOOM and Dayline laws; no independent authority.</desc>
  <style>
    .head{font:700 7px ui-monospace,SFMono-Regular,Menlo,monospace;letter-spacing:.7px;fill:#111}
    .sub{font:3.2px ui-monospace,SFMono-Regular,Menlo,monospace;fill:#555}
    .leafTitle{font:700 5px ui-monospace,SFMono-Regular,Menlo,monospace;letter-spacing:.45px;fill:#111}
    .leafSub{font:700 2.7px ui-monospace,SFMono-Regular,Menlo,monospace;letter-spacing:.35px;fill:#555}
    .micro{font:2.45px ui-monospace,SFMono-Regular,Menlo,monospace;fill:#555}
    .bitLabel{font:2.1px ui-monospace,SFMono-Regular,Menlo,monospace;fill:#777}
    .law{font:700 2.9px ui-monospace,SFMono-Regular,Menlo,monospace;fill:#111}
  </style>
  <rect width="420" height="297" fill="#f8f5ed"/>
  <text x="8" y="10" class="head">FAN/8 · FIELD PHYSICAL PROJECTION · v0.2</text>
  <text x="8" y="17" class="sub">SAME HELD OBJECT · IDENTIFY ≠ EMBED ≠ DEFORM · BODY NEVER CREATES AUTHORITY</text>
  <text x="8" y="25" class="law">6 STABLE SLOTS + HOLD FAST + LET FLY</text>
  <text x="8" y="31" class="sub">STACK = FOCUS · FAN = ≤3 REACHABLE MOVES · ANNULUS = CYCLIC VIEW · HOLD FAST = TEST/ARM · LET FLY = RUN→WITNESS→RETURN</text>
  <text x="319" y="10" class="sub">PRINT 100% / ACTUAL SIZE</text>
  <text x="319" y="16" class="sub">LEAF ≈ 186 mm · PIVOT Ø5 mm</text>
  <text x="319" y="22" class="sub">M4 / PAPER FASTENER · TIP LACE OPTIONAL</text>
  <line x1="310" y1="33" x2="410" y2="33" stroke="#111" stroke-width=".8"/>
  <line x1="310" y1="30" x2="310" y2="36" stroke="#111" stroke-width=".35"/>
  <line x1="410" y1="30" x2="410" y2="36" stroke="#111" stroke-width=".35"/>
  <text x="310" y="29" class="bitLabel">CALIBRATION 100 mm · PASS 99–101 mm BEFORE CUTTING</text>
  <g id="hub-label">
    <rect x="207" y="5" width="96" height="28" fill="#fffdf7" stroke="#111" stroke-width=".55"/>
    <text x="212" y="12" class="law">HELD / MODE / RETURN</text>
    <text x="212" y="18" class="micro">HELD  ______________________________</text>
    <text x="212" y="24" class="micro">MODE  ______________________________</text>
    <text x="212" y="30" class="micro">RETURN _____________________________</text>
  </g>
  <g id="leaf-slot-0" data-fan8-leaf="0" data-code="0">
    <path d="M 19 57 L 195 43 L 205 44 L 205 86 L 195 87 L 19 73 Z"
      fill="#fffdf7" stroke="#111" stroke-width=".7"/>
    <line x1="34" y1="54" x2="34" y2="76" stroke="#e8663a" stroke-width="2.2"/>
    <circle cx="23" cy="65" r="2.5" fill="none" stroke="#111" stroke-width=".65"/>
    <circle cx="195" cy="65" r="1.5" fill="none" stroke="#777" stroke-width=".45"/>
    <text x="40" y="60" class="leafTitle">SLOT 0</text>
    <text x="40" y="67" class="leafSub">DIAL 0 · HEX L1 · MOVE</text>
    <text x="40" y="78" class="micro">write current move / cue</text>
    <line x1="99" y1="76.5" x2="178" y2="76.5" stroke="#777" stroke-width=".35"/>
    
    <rect x="180" y="49" width="3.6" height="3.6" fill="none" stroke="#111" stroke-width=".35"/><rect x="185" y="49" width="3.6" height="3.6" fill="none" stroke="#111" stroke-width=".35"/><rect x="190" y="49" width="3.6" height="3.6" fill="none" stroke="#111" stroke-width=".35"/>
    <text x="180" y="57" class="bitLabel">000</text>
  </g>
<g id="leaf-slot-1" data-fan8-leaf="1" data-code="1">
    <path d="M 224 57 L 400 43 L 410 44 L 410 86 L 400 87 L 224 73 Z"
      fill="#fffdf7" stroke="#111" stroke-width=".7"/>
    <line x1="239" y1="54" x2="239" y2="76" stroke="#e8663a" stroke-width="2.2"/>
    <circle cx="228" cy="65" r="2.5" fill="none" stroke="#111" stroke-width=".65"/>
    <circle cx="400" cy="65" r="1.5" fill="none" stroke="#777" stroke-width=".45"/>
    <text x="245" y="60" class="leafTitle">SLOT 1</text>
    <text x="245" y="67" class="leafSub">DIAL 1 · HEX L2 · MOVE</text>
    <text x="245" y="78" class="micro">write current move / cue</text>
    <line x1="304" y1="76.5" x2="383" y2="76.5" stroke="#777" stroke-width=".35"/>
    
    <rect x="385" y="49" width="3.6" height="3.6" fill="none" stroke="#111" stroke-width=".35"/><rect x="390" y="49" width="3.6" height="3.6" fill="none" stroke="#111" stroke-width=".35"/><rect x="395" y="49" width="3.6" height="3.6" fill="#111" stroke="#111" stroke-width=".35"/>
    <text x="385" y="57" class="bitLabel">001</text>
  </g>
<g id="leaf-slot-2" data-fan8-leaf="2" data-code="2">
    <path d="M 19 112 L 195 98 L 205 99 L 205 141 L 195 142 L 19 128 Z"
      fill="#fffdf7" stroke="#111" stroke-width=".7"/>
    <line x1="34" y1="109" x2="34" y2="131" stroke="#e8663a" stroke-width="2.2"/>
    <circle cx="23" cy="120" r="2.5" fill="none" stroke="#111" stroke-width=".65"/>
    <circle cx="195" cy="120" r="1.5" fill="none" stroke="#777" stroke-width=".45"/>
    <text x="40" y="115" class="leafTitle">SLOT 2</text>
    <text x="40" y="122" class="leafSub">DIAL 2 · HEX L3 · MOVE</text>
    <text x="40" y="133" class="micro">write current move / cue</text>
    <line x1="99" y1="131.5" x2="178" y2="131.5" stroke="#777" stroke-width=".35"/>
    
    <rect x="180" y="104" width="3.6" height="3.6" fill="none" stroke="#111" stroke-width=".35"/><rect x="185" y="104" width="3.6" height="3.6" fill="#111" stroke="#111" stroke-width=".35"/><rect x="190" y="104" width="3.6" height="3.6" fill="none" stroke="#111" stroke-width=".35"/>
    <text x="180" y="112" class="bitLabel">010</text>
  </g>
<g id="leaf-slot-3" data-fan8-leaf="3" data-code="3">
    <path d="M 224 112 L 400 98 L 410 99 L 410 141 L 400 142 L 224 128 Z"
      fill="#fffdf7" stroke="#111" stroke-width=".7"/>
    <line x1="239" y1="109" x2="239" y2="131" stroke="#4f87a3" stroke-width="2.2"/>
    <circle cx="228" cy="120" r="2.5" fill="none" stroke="#111" stroke-width=".65"/>
    <circle cx="400" cy="120" r="1.5" fill="none" stroke="#777" stroke-width=".45"/>
    <text x="245" y="115" class="leafTitle">SLOT 3</text>
    <text x="245" y="122" class="leafSub">DIAL 3 · HEX L4 · MOVE</text>
    <text x="245" y="133" class="micro">write current move / cue</text>
    <line x1="304" y1="131.5" x2="383" y2="131.5" stroke="#777" stroke-width=".35"/>
    
    <rect x="385" y="104" width="3.6" height="3.6" fill="none" stroke="#111" stroke-width=".35"/><rect x="390" y="104" width="3.6" height="3.6" fill="#111" stroke="#111" stroke-width=".35"/><rect x="395" y="104" width="3.6" height="3.6" fill="#111" stroke="#111" stroke-width=".35"/>
    <text x="385" y="112" class="bitLabel">011</text>
  </g>
<g id="leaf-slot-4" data-fan8-leaf="4" data-code="4">
    <path d="M 19 167 L 195 153 L 205 154 L 205 196 L 195 197 L 19 183 Z"
      fill="#fffdf7" stroke="#111" stroke-width=".7"/>
    <line x1="34" y1="164" x2="34" y2="186" stroke="#4f87a3" stroke-width="2.2"/>
    <circle cx="23" cy="175" r="2.5" fill="none" stroke="#111" stroke-width=".65"/>
    <circle cx="195" cy="175" r="1.5" fill="none" stroke="#777" stroke-width=".45"/>
    <text x="40" y="170" class="leafTitle">SLOT 4</text>
    <text x="40" y="177" class="leafSub">DIAL 4 · HEX L5 · MOVE</text>
    <text x="40" y="188" class="micro">write current move / cue</text>
    <line x1="99" y1="186.5" x2="178" y2="186.5" stroke="#777" stroke-width=".35"/>
    
    <rect x="180" y="159" width="3.6" height="3.6" fill="#111" stroke="#111" stroke-width=".35"/><rect x="185" y="159" width="3.6" height="3.6" fill="none" stroke="#111" stroke-width=".35"/><rect x="190" y="159" width="3.6" height="3.6" fill="none" stroke="#111" stroke-width=".35"/>
    <text x="180" y="167" class="bitLabel">100</text>
  </g>
<g id="leaf-slot-5" data-fan8-leaf="5" data-code="5">
    <path d="M 224 167 L 400 153 L 410 154 L 410 196 L 400 197 L 224 183 Z"
      fill="#fffdf7" stroke="#111" stroke-width=".7"/>
    <line x1="239" y1="164" x2="239" y2="186" stroke="#4f87a3" stroke-width="2.2"/>
    <circle cx="228" cy="175" r="2.5" fill="none" stroke="#111" stroke-width=".65"/>
    <circle cx="400" cy="175" r="1.5" fill="none" stroke="#777" stroke-width=".45"/>
    <text x="245" y="170" class="leafTitle">SLOT 5</text>
    <text x="245" y="177" class="leafSub">DIAL 5 · HEX L6 · MOVE</text>
    <text x="245" y="188" class="micro">write current move / cue</text>
    <line x1="304" y1="186.5" x2="383" y2="186.5" stroke="#777" stroke-width=".35"/>
    
    <rect x="385" y="159" width="3.6" height="3.6" fill="#111" stroke="#111" stroke-width=".35"/><rect x="390" y="159" width="3.6" height="3.6" fill="none" stroke="#111" stroke-width=".35"/><rect x="395" y="159" width="3.6" height="3.6" fill="#111" stroke="#111" stroke-width=".35"/>
    <text x="385" y="167" class="bitLabel">101</text>
  </g>
<g id="leaf-hold" data-fan8-leaf="6" data-code="6">
    <path d="M 19 222 L 195 208 L 205 209 L 205 251 L 195 252 L 19 238 Z"
      fill="#fffdf7" stroke="#111" stroke-width=".7"/>
    <line x1="34" y1="219" x2="34" y2="241" stroke="#111111" stroke-width="2.2"/>
    <circle cx="23" cy="230" r="2.5" fill="none" stroke="#111" stroke-width=".65"/>
    <circle cx="195" cy="230" r="1.5" fill="none" stroke="#777" stroke-width=".45"/>
    <text x="40" y="225" class="leafTitle">HOLD FAST</text>
    <text x="40" y="232" class="leafSub">READ · TEST · ARM</text>
    <text x="40" y="243" class="micro">freeze choice before consequence</text>
    <line x1="99" y1="241.5" x2="178" y2="241.5" stroke="#777" stroke-width=".35"/>
    <text x="115" y="248" class="micro">GARDEN: ○ BODY  ○ PATH  ○ VOICE</text>
    <rect x="180" y="214" width="3.6" height="3.6" fill="#111" stroke="#111" stroke-width=".35"/><rect x="185" y="214" width="3.6" height="3.6" fill="#111" stroke="#111" stroke-width=".35"/><rect x="190" y="214" width="3.6" height="3.6" fill="none" stroke="#111" stroke-width=".35"/>
    <text x="180" y="222" class="bitLabel">110</text>
  </g>
<g id="leaf-let-fly" data-fan8-leaf="7" data-code="7">
    <path d="M 224 222 L 400 208 L 410 209 L 410 251 L 400 252 L 224 238 Z"
      fill="#fffdf7" stroke="#111" stroke-width=".7"/>
    <line x1="239" y1="219" x2="239" y2="241" stroke="#111111" stroke-width="2.2"/>
    <circle cx="228" cy="230" r="2.5" fill="none" stroke="#111" stroke-width=".65"/>
    <circle cx="400" cy="230" r="1.5" fill="none" stroke="#777" stroke-width=".45"/>
    <text x="245" y="225" class="leafTitle">LET FLY</text>
    <text x="245" y="232" class="leafSub">RUN · WITNESS · RETURN</text>
    <text x="245" y="243" class="micro">release once · then record what changed</text>
    <line x1="304" y1="241.5" x2="383" y2="241.5" stroke="#777" stroke-width=".35"/>
    
    <rect x="385" y="214" width="3.6" height="3.6" fill="#111" stroke="#111" stroke-width=".35"/><rect x="390" y="214" width="3.6" height="3.6" fill="#111" stroke="#111" stroke-width=".35"/><rect x="395" y="214" width="3.6" height="3.6" fill="#111" stroke="#111" stroke-width=".35"/>
    <text x="385" y="222" class="bitLabel">111</text>
  </g>
  <g id="legend">
    <rect x="7" y="260" width="406" height="32" fill="#fffdf7" stroke="#111" stroke-width=".6"/>
    <text x="12" y="268" class="law">ONE SIX-SLOT ADDRESS · UNEQUAL READINGS</text>
    <text x="12" y="274" class="sub">TWO DIAL: circular distance Δ0 SAME→BLOOM · Δ1 NEAR→FOLD · Δ2 FAR→RETURN · Δ3 OPPOSITE→SPLIT</text>
    <text x="12" y="281" class="sub">HEX: SLOT 0–5 → LINE 1–6 · release writes SOLID for BLOOM/FOLD, BROKEN for SPLIT/RETURN.</text>
    <text x="12" y="288" class="sub">DAYLINE / FIELD: write ≤3 local moves. HOLD FAST one. LET FLY once. WITNESS → RETURN before repopulating.</text>
    <text x="314" y="268" class="law">IDENTIFY ≠ EMBED</text>
    <text x="314" y="274" class="sub">slot relation is logical.</text>
    <text x="314" y="281" class="sub">fan/wrap changes body only.</text>
    <text x="314" y="288" class="sub">000–111 are passive IDs.</text>
  </g>
</svg>